<svg width="77" height="77" viewBox="0 0 77 77" fill="none" xmlns="http://www.w3.org/2000/svg">
<path d="M31.1529 36.2221C30.5488 35.6179 29.7294 35.2785 28.875 35.2785C28.0206 35.2785 27.2012 35.6179 26.5971 36.2221C25.9929 36.8262 25.6535 37.6456 25.6535 38.5C25.6535 39.3544 25.9929 40.1738 26.5971 40.7779L36.2221 50.4029C36.5219 50.7003 36.8774 50.9355 37.2683 51.0952C37.6592 51.2548 38.0778 51.3358 38.5 51.3333C38.9392 51.3194 39.3709 51.2154 39.7683 51.0277C40.1656 50.8401 40.5202 50.5728 40.81 50.2425L63.2683 24.5758C63.7869 23.932 64.0369 23.1129 63.9663 22.2892C63.8957 21.4655 63.5098 20.7009 62.8892 20.1548C62.2686 19.6086 61.4611 19.3231 60.6352 19.3578C59.8092 19.3925 59.0285 19.7446 58.4558 20.3408L38.5 43.4408L31.1529 36.2221Z" fill="#462273"/>
<path d="M67.375 35.2916C66.5241 35.2916 65.708 35.6296 65.1064 36.2313C64.5047 36.833 64.1667 37.6491 64.1667 38.5C64.1667 45.3072 61.4625 51.8356 56.6491 56.649C51.8356 61.4625 45.3072 64.1666 38.5 64.1666C33.4311 64.1643 28.4764 62.6612 24.2607 59.8467C20.0449 57.0323 16.7569 53.0326 14.8112 48.352C12.8655 43.6714 12.3493 38.5195 13.3277 33.5459C14.3061 28.5724 16.7352 23.9998 20.3087 20.405C22.6852 17.9967 25.5181 16.0867 28.6416 14.7866C31.7652 13.4865 35.1167 12.8224 38.5 12.8333C40.5516 12.8461 42.5956 13.0828 44.5958 13.5391C45.0144 13.6686 45.4551 13.711 45.8907 13.6636C46.3262 13.6163 46.7475 13.4802 47.1285 13.2638C47.5095 13.0474 47.8421 12.7552 48.1058 12.4054C48.3696 12.0555 48.5589 11.6553 48.662 11.2295C48.7652 10.8037 48.78 10.3612 48.7057 9.92943C48.6313 9.49764 48.4692 9.08567 48.2296 8.7189C47.9899 8.35213 47.6776 8.03835 47.312 7.79689C46.9464 7.55543 46.5352 7.39142 46.1037 7.31496C43.6113 6.72861 41.0604 6.42724 38.5 6.41663C32.1614 6.44955 25.9746 8.35934 20.7204 11.905C15.4661 15.4506 11.3799 20.4732 8.9773 26.3389C6.57473 32.2046 5.96351 38.6505 7.22078 44.8632C8.47805 51.076 11.5475 56.777 16.0417 61.247C21.9985 67.2066 30.0738 70.5636 38.5 70.5833C47.009 70.5833 55.1695 67.2031 61.1863 61.1863C67.2031 55.1695 70.5833 47.009 70.5833 38.5C70.5833 37.6491 70.2453 36.833 69.6436 36.2313C69.042 35.6296 68.2259 35.2916 67.375 35.2916Z" fill="#462273"/>
</svg>
