<svg width="80" height="56" viewBox="0 0 80 56" fill="none" xmlns="http://www.w3.org/2000/svg">
<g clip-path="url(#clip0_6_237)">
<path d="M80 14.359V9.23077C80 6.78262 79.0275 4.43474 77.2964 2.70363C75.5653 0.972526 73.2174 0 70.7692 0H9.23077C6.78262 0 4.43473 0.972526 2.70363 2.70363C0.972525 4.43474 0 6.78262 0 9.23077V14.359H80Z" fill="#462273"/>
<path d="M0 20.5128V46.1538C0 48.602 0.972525 50.9499 2.70363 52.681C4.43473 54.4121 6.78262 55.3846 9.23077 55.3846H70.7692C73.2174 55.3846 75.5653 54.4121 77.2964 52.681C79.0275 50.9499 80 48.602 80 46.1538V20.5128H0ZM15.3846 30.7692H24.6154C25.4314 30.7692 26.2141 31.0934 26.7911 31.6704C27.3681 32.2475 27.6923 33.0301 27.6923 33.8462C27.6923 34.6622 27.3681 35.4448 26.7911 36.0219C26.2141 36.5989 25.4314 36.9231 24.6154 36.9231H15.3846C14.5686 36.9231 13.7859 36.5989 13.2089 36.0219C12.6319 35.4448 12.3077 34.6622 12.3077 33.8462C12.3077 33.0301 12.6319 32.2475 13.2089 31.6704C13.7859 31.0934 14.5686 30.7692 15.3846 30.7692ZM30.7692 46.1538H15.3846C14.5686 46.1538 13.7859 45.8297 13.2089 45.2526C12.6319 44.6756 12.3077 43.893 12.3077 43.0769C12.3077 42.2609 12.6319 41.4782 13.2089 40.9012C13.7859 40.3242 14.5686 40 15.3846 40H30.7692C31.5853 40 32.3679 40.3242 32.9449 40.9012C33.522 41.4782 33.8462 42.2609 33.8462 43.0769C33.8462 43.893 33.522 44.6756 32.9449 45.2526C32.3679 45.8297 31.5853 46.1538 30.7692 46.1538ZM62.5641 46.1538C60.6992 46.1524 58.8905 45.5157 57.4359 44.3487C56.2296 45.3165 54.7743 45.9237 53.2379 46.1002C51.7015 46.2767 50.1464 46.0155 48.7521 45.3465C47.3577 44.6775 46.1808 43.6281 45.357 42.3192C44.5332 41.0103 44.0962 39.4953 44.0962 37.9487C44.0962 36.4022 44.5332 34.8871 45.357 33.5782C46.1808 32.2693 47.3577 31.2199 48.7521 30.5509C50.1464 29.882 51.7015 29.6207 53.2379 29.7972C54.7743 29.9738 56.2296 30.5809 57.4359 31.5487C58.459 30.7279 59.664 30.1643 60.9499 29.9052C62.2358 29.6462 63.565 29.6991 64.8262 30.0597C66.0873 30.4203 67.2437 31.078 68.1982 31.9777C69.1528 32.8774 69.8777 33.9928 70.3123 35.2304C70.7468 36.468 70.8783 37.7918 70.6958 39.0907C70.5132 40.3897 70.0219 41.6259 69.263 42.6958C68.5041 43.7657 67.4998 44.638 66.3342 45.2397C65.1686 45.8414 63.8758 46.1549 62.5641 46.1538Z" fill="#462273"/>
</g>
<defs>
<clipPath id="clip0_6_237">
<rect width="80" height="55.3846" fill="white"/>
</clipPath>
</defs>
</svg>
