<svg width="63" height="65" viewBox="0 0 63 65" fill="none" xmlns="http://www.w3.org/2000/svg">
<path d="M62.3807 4.28359C61.9407 2.80403 60.5481 0.279423 56.1622 0.0049619C55.1589 -0.0533405 51.0904 0.267872 46.2926 8.48466L29.1088 8.46431H29.1066C28.8206 8.46431 28.5472 8.53361 28.3041 8.65901C28.1083 8.75252 27.929 8.88397 27.775 9.04678L0.835421 37.6898C0.148993 38.4191 0.184744 39.5664 0.914074 40.2534L26.7013 64.5083C27.0506 64.8372 27.4978 65.0006 27.9433 65.0006C28.4256 65.0006 28.9075 64.8086 29.2633 64.4302L56.1143 35.8829C56.5175 35.5188 56.743 34.9847 56.7083 34.4248L55.698 18.2564C60.7928 14.0399 63.5781 8.3136 62.3807 4.28359ZM27.8646 60.6246L4.71803 38.8536L29.8893 12.0912L44.3884 12.1082C43.6745 13.6092 42.9512 15.3066 42.2257 17.1998C40.5894 17.0826 38.9019 17.62 37.754 18.841C35.6628 21.0637 35.7695 24.575 37.9933 26.6695C39.0251 27.6403 40.3721 28.1733 41.7873 28.1733C43.3087 28.1733 44.78 27.5374 45.8223 26.4291C46.8354 25.3527 47.3684 23.9441 47.3228 22.4657C47.2777 20.9878 46.6594 19.6155 45.5819 18.6023C45.3768 18.4093 45.1463 18.2531 44.9153 18.0985C45.7304 16.0711 46.6523 14.0272 47.6308 12.1115L51.6811 12.1165L53.0402 33.8588L27.8646 60.6246ZM44.543 22.5509C44.565 23.2874 44.2998 23.9881 43.7955 24.5239C42.7867 25.5942 40.9717 25.6503 39.9019 24.6432C38.7952 23.6015 38.7419 21.853 39.782 20.748C40.1769 20.3277 40.6774 20.0494 41.2274 19.9367C40.9733 20.6693 40.7186 21.4206 40.4651 22.2077C40.2286 22.9398 40.6312 23.7236 41.3627 23.959C41.5046 24.0046 41.6482 24.0272 41.789 24.0272C42.377 24.0272 42.9237 23.6515 43.1129 23.0625C43.3434 22.348 43.6019 21.6049 43.8719 20.8525C44.28 21.3282 44.5232 21.9162 44.543 22.5509ZM55.1941 10.193C55.1342 9.23874 54.3433 8.49456 53.3868 8.49291L49.6637 8.48851C51.8076 5.04867 54.0589 2.65717 55.9884 2.78313C58.046 2.91128 59.2995 3.68296 59.7131 5.07617C60.3792 7.31971 58.9156 11.1952 55.4735 14.6642L55.1941 10.193Z" fill="#462273"/>
<path d="M32.0354 34.8187L30.519 33.3925L29.1363 34.8627C27.1749 33.6306 25.2124 33.7956 23.9309 35.1575C22.5195 36.6579 22.9216 38.4939 24.0535 40.6082C24.834 42.0718 24.9797 42.9089 24.4264 43.4975C23.8445 44.1162 22.921 43.8885 22.0393 43.0591C21.0339 42.1136 20.4267 40.9294 20.111 39.963L17.9439 41.337C18.2117 42.2297 18.9559 43.4546 19.9487 44.4765L18.567 45.9456L20.0834 47.3718L21.5669 45.7944C23.6371 47.1579 25.7179 46.8994 27.0132 45.5227C28.3239 44.1294 28.3811 42.58 27.1512 40.1984C26.3015 38.4664 26.0655 37.6315 26.5457 37.1216C26.9532 36.6882 27.6859 36.5606 28.6919 37.5066C29.8056 38.5544 30.1819 39.5802 30.4244 40.1291L32.5178 38.8025C32.2411 38.0742 31.7467 37.2036 30.7539 36.1816L32.0354 34.8187Z" fill="#462273"/>
<path d="M26.2294 21.248C25.9978 21.0323 25.6299 21.0411 25.4104 21.2738C25.191 21.5059 25.202 21.8733 25.4352 22.0933L43.5942 39.1737C43.7058 39.2782 43.8483 39.331 43.9913 39.331C44.1453 39.331 44.2993 39.2689 44.4131 39.1484C44.6332 38.9158 44.6216 38.5489 44.3884 38.3289L26.2294 21.248Z" fill="#462273"/>
</svg>
