<svg width="79" height="230" viewBox="0 0 79 230" fill="none" xmlns="http://www.w3.org/2000/svg">
<path d="M0 71.5708V65.1141C0 54.4173 15.3316 52.6509 17.7642 63.0674L18.1262 64.6175C19.0772 68.69 22.7083 71.5708 26.8904 71.5708H39.5H70C74.9706 71.5708 79 75.6002 79 80.5708V150.503V154.882C79 163.247 66.885 164.355 65.3669 156.13V156.13C64.7652 152.87 61.9225 150.503 58.6074 150.503H56.9929H9.00001C4.02945 150.503 0 146.474 0 141.503V71.5708Z" fill="#FFF7E2"/>
<path d="M5.712 120L15.696 97.6H20.816L30.832 120H25.392L17.2 100.224H19.248L11.024 120H5.712ZM10.704 115.2L12.08 111.264H23.6L25.008 115.2H10.704Z" fill="#462273"/>
<path d="M33.156 120V97.6H42.852C44.8573 97.6 46.5853 97.9307 48.036 98.592C49.4867 99.232 50.6067 100.16 51.396 101.376C52.1853 102.592 52.58 104.043 52.58 105.728C52.58 107.392 52.1853 108.832 51.396 110.048C50.6067 111.264 49.4867 112.203 48.036 112.864C46.5853 113.504 44.8573 113.824 42.852 113.824H36.036L38.34 111.488V120H33.156ZM38.34 112.064L36.036 109.6H42.564C44.164 109.6 45.3587 109.259 46.148 108.576C46.9373 107.893 47.332 106.944 47.332 105.728C47.332 104.491 46.9373 103.531 46.148 102.848C45.3587 102.165 44.164 101.824 42.564 101.824H36.036L38.34 99.36V112.064ZM56.281 120V97.6H61.465V115.776H72.697V120H56.281Z" fill="#462273"/>
</svg>
